<?xml version="1.0" ?><svg data-name="Layer 1" id="Layer_1" viewBox="0 0 64 64" xmlns="http://www.w3.org/2000/svg"><defs><style>.cls-1{fill:#6d4d42;}.cls-2{fill:#ab6cad;}.cls-3{fill:#9b51a0;}.cls-4{fill:#863b96;}.cls-5{fill:#783293;}.cls-6{fill:#692c90;}.cls-7{fill:#4b2d87;}.cls-8{fill:#378e43;}.cls-9{fill:#42a047;}.cls-10{fill:#263238;}</style></defs><path class="cls-1" d="M25,25a1,1,0,0,1-1-1V19.4468A6.4542,6.4542,0,0,0,17.5532,13H13a1,1,0,0,1,0-2h4.5532A8.4562,8.4562,0,0,1,26,19.4468V24A1,1,0,0,1,25,25Z"/><path class="cls-1" d="M52,36a1,1,0,0,1-1-1V26.51a3.4849,3.4849,0,0,0-3.4814-3.481H45a1,1,0,0,1,0-2h2.5186A5.4876,5.4876,0,0,1,53,26.51V35A1,1,0,0,1,52,36Z"/><path class="cls-2" d="M60,43.5A8.5057,8.5057,0,0,1,51.5,52c-.17,0-.33,0-.5-.01a8.505,8.505,0,0,1,0-16.98c.17-.01.33-.01.5-.01A8.5057,8.5057,0,0,1,60,43.5Z"/><path class="cls-3" d="M60,43.5A8.5057,8.5057,0,0,1,51.5,52c-.17,0-.33,0-.5-.01V35.01c.17-.01.33-.01.5-.01A8.5057,8.5057,0,0,1,60,43.5Z"/><path class="cls-4" d="M24.98,25.09a12.0259,12.0259,0,0,0-3.9,7.56A8.3011,8.3011,0,0,1,17,33.98a4.18,4.18,0,0,1-.5.02,8.5,8.5,0,0,1,0-17,4.18,4.18,0,0,1,.5.02A8.4842,8.4842,0,0,1,24.98,25.09Z"/><path class="cls-5" d="M24.98,25.09a12.0259,12.0259,0,0,0-3.9,7.56A8.3011,8.3011,0,0,1,17,33.98V17.02A8.4842,8.4842,0,0,1,24.98,25.09Z"/><path class="cls-4" d="M44.31,48.02a6.9963,6.9963,0,0,1-13.26-2.19A12.6189,12.6189,0,0,0,33,46a11.7646,11.7646,0,0,0,5-1.1,12.0256,12.0256,0,0,0,5.19-4.59c.1.12.21.24.3.36A8.585,8.585,0,0,0,43,43.5,8.4172,8.4172,0,0,0,44.31,48.02Z"/><path class="cls-5" d="M44.31,48.02A7.0055,7.0055,0,0,1,38,52V44.9a12.0256,12.0256,0,0,0,5.19-4.59c.1.12.21.24.3.36A8.585,8.585,0,0,0,43,43.5,8.4172,8.4172,0,0,0,44.31,48.02Z"/><path class="cls-6" d="M45,34a11.9942,11.9942,0,0,1-23.7,2.62A6.277,6.277,0,0,0,27.29,41H29V39.29A6.2822,6.2822,0,0,0,22.71,33H21.06a12,12,0,0,1,5.31-9h1.56A9.0114,9.0114,0,0,0,33,22.45a5.98,5.98,0,0,0,.57-.42A11.96,11.96,0,0,1,43,27.38V28.5a6.4556,6.4556,0,0,0,1.96,4.64C44.98,33.43,45,33.71,45,34Z"/><path class="cls-7" d="M45,34A11.9967,11.9967,0,0,1,33,46V22.45a5.98,5.98,0,0,0,.57-.42A11.96,11.96,0,0,1,43,27.38V28.5a6.4556,6.4556,0,0,0,1.96,4.64C44.98,33.43,45,33.71,45,34Z"/><path class="cls-2" d="M25.7,43.51A10.9941,10.9941,0,1,1,10.15,31.14,8.5029,8.5029,0,0,0,15,33.87a9.2946,9.2946,0,0,0,1.5.13,8.431,8.431,0,0,0,4.58-1.35c-.01.12-.01.23-.02.35H21v1.71a6.3764,6.3764,0,0,0,.3,1.92A12.0154,12.0154,0,0,0,25.7,43.51Z"/><path class="cls-3" d="M25.7,43.51A11.0015,11.0015,0,0,1,15,52V33.87a9.2946,9.2946,0,0,0,1.5.13,8.431,8.431,0,0,0,4.58-1.35c-.01.12-.01.23-.02.35H21v1.71a6.3764,6.3764,0,0,0,.3,1.92A12.0154,12.0154,0,0,0,25.7,43.51Z"/><path class="cls-8" d="M37,12v2.93A9.069,9.069,0,0,1,27.93,24H25V21.07A9.069,9.069,0,0,1,34.07,12Z"/><path class="cls-9" d="M37,12v2.93A9.069,9.069,0,0,1,27.93,24H25Z"/><path class="cls-10" d="M40,36H39V35a1,1,0,0,0-2,0v1H36a1,1,0,0,0,0,2h1v1a1,1,0,0,0,2,0V38h1a1,1,0,0,0,0-2Z"/><path class="cls-10" d="M12,43H11V42a1,1,0,0,0-2,0v1H8a1,1,0,0,0,0,2H9v1a1,1,0,0,0,2,0V45h1a1,1,0,0,0,0-2Z"/><path class="cls-10" d="M17,22H16V21a1,1,0,0,0-2,0v1H13a1,1,0,0,0,0,2h1v1a1,1,0,0,0,2,0V24h1a1,1,0,0,0,0-2Z"/><path class="cls-10" d="M56,44H55V43a1,1,0,0,0-2,0v1H52a1,1,0,0,0,0,2h1v1a1,1,0,0,0,2,0V46h1a1,1,0,0,0,0-2Z"/><path class="cls-8" d="M60,27v1.59A6.41,6.41,0,0,1,53.59,35H52V33.41A6.41,6.41,0,0,1,58.41,27Z"/><path class="cls-9" d="M60,27v1.59A6.41,6.41,0,0,1,53.59,35H52Z"/><path class="cls-8" d="M52,32.5V35H49.5A6.5,6.5,0,0,1,43,28.5V26h2.5A6.5,6.5,0,0,1,52,32.5Z"/><path class="cls-9" d="M52,35H49.5A6.5,6.5,0,0,1,43,28.5V26Z"/><path class="cls-9" d="M29,39.29V41H27.29A6.2822,6.2822,0,0,1,21,34.71V33h1.71A6.2822,6.2822,0,0,1,29,39.29Z"/><path class="cls-8" d="M29,39.29V41l-8-8h1.71A6.2822,6.2822,0,0,1,29,39.29Z"/><path class="cls-8" d="M58,12v1.17A8.8257,8.8257,0,0,1,49.17,22H48V20.83A8.8257,8.8257,0,0,1,56.83,12Z"/><path class="cls-9" d="M58,12v1.17A8.8257,8.8257,0,0,1,49.17,22H48Z"/><path class="cls-8" d="M45,20.48V22H43.48A2.48,2.48,0,0,1,41,19.52V18h1.52A2.48,2.48,0,0,1,45,20.48Z"/><path class="cls-9" d="M45,22H43.48A2.48,2.48,0,0,1,41,19.52V18Z"/><path d="M17.3091,28.9038c-.7867.1468-1.7606.0014-1.8091,1.0963.03,1.2087,1.4411,1.0724,2.28.847A1,1,0,0,0,17.3091,28.9038Z"/><path d="M39,36V35a1,1,0,0,0-2,0v1H36a1,1,0,0,0,0,2h1v1a1,1,0,0,0,2,0V38h1a1,1,0,0,0,0-2Z"/><path d="M12,43H11V42a1,1,0,0,0-2,0v1H8a1,1,0,0,0,0,2H9v1a1,1,0,0,0,2,0V45h1A1,1,0,0,0,12,43Z"/><path d="M13,24h1v1a1,1,0,0,0,2,0V24h1a1,1,0,0,0,0-2H16V21a1,1,0,0,0-2,0v1H13A1,1,0,0,0,13,24Z"/><path d="M51,45a1,1,0,0,0,1,1h1v1a1,1,0,0,0,2,0V46h1a1,1,0,0,0,0-2H55V43a1,1,0,0,0-2,0v1H52A1,1,0,0,0,51,45Z"/><path d="M60,26H58.41A7.3829,7.3829,0,0,0,53,28.3631V26.51a5.4577,5.4577,0,0,0-1.5334-3.7925A9.8418,9.8418,0,0,0,59,13.1675V12a1,1,0,0,0-1-1A9.9819,9.9819,0,0,0,47,21.0288H46A3.56,3.56,0,0,0,42.5224,17H41a1,1,0,0,0-1,1v1.5229A3.4808,3.4808,0,0,0,43.4775,23h1.38A.9345.9345,0,0,0,45,23.0288h2.5186A3.4849,3.4849,0,0,1,51,26.51v.9112A7.4767,7.4767,0,0,0,45.4961,25c-.4078.05-2.719-.1422-3.0084.1615a13.0591,13.0591,0,0,0-6.7817-3.8387A10.02,10.02,0,0,0,38,14.9331V12a1,1,0,0,0-1-1H34.0674a10.0682,10.0682,0,0,0-8.7548,5.1151A8.4577,8.4577,0,0,0,17.5532,11H13a1,1,0,0,0,0,2h4.5531A6.4663,6.4663,0,0,1,24,19.6874c-7.76-9.4137-21.9.8153-15.3524,11.151C-1.5086,37.1778,3.0116,52.9538,15,53a11.9278,11.9278,0,0,0,11.2675-7.9183,13.0094,13.0094,0,0,0,3.913,1.5913c1.3007,6.6185,10.2458,8.592,14.2042,3.1006C50.0587,56.2885,61.0028,52.2343,61,43.5a9.4932,9.4932,0,0,0-4.532-8.0819A7.4218,7.4218,0,0,0,61,28.5894V27A1,1,0,0,0,60,26ZM56.833,13H57a7.8474,7.8474,0,0,1-6.4573,7.8713L53.707,17.707a1,1,0,0,0-1.414-1.414l-3.1644,3.1643A7.84,7.84,0,0,1,56.833,13ZM42,19.5229V19a1.6462,1.6462,0,0,1,2,2A1.6023,1.6023,0,0,1,42,19.5229ZM45.9443,35.1q.3017.1633.62.2989-.37.2261-.716.4836C45.8857,35.623,45.922,35.3638,45.9443,35.1ZM44,27h1.4961A5.5126,5.5126,0,0,1,51,32.5859L47.707,29.293a1,1,0,0,0-1.414,1.414L49.5859,34A5.5309,5.5309,0,0,1,44,28.4956C44.005,28.2338,43.9964,27.2475,44,27Zm-2,.6885a7.883,7.883,0,0,0,1.9854,5.8882c.3953,9.9944-11.8846,15.2367-18.82,8.1113A13.1811,13.1811,0,0,0,29,42a1,1,0,0,0,1-1V39.2852A7.3336,7.3336,0,0,0,22.2031,32a11.08,11.08,0,0,1,4.4781-7,10.86,10.86,0,0,0,7.1977-1.95A11.0547,11.0547,0,0,1,42,27.6885ZM26.3052,39.9009A5.4383,5.4383,0,0,1,22,34a5.4333,5.4333,0,0,1,6,6A8.1869,8.1869,0,0,1,26.3052,39.9009ZM34.0674,13H36v1.9331A8.1417,8.1417,0,0,1,27.4141,23l6.2929-6.293a1,1,0,0,0-1.414-1.414L26,21.5859A8.1144,8.1144,0,0,1,34.0674,13ZM16.5,18a7.4821,7.4821,0,0,1,7.4458,6.69,13.1332,13.1332,0,0,0-3.79,7.3319C15.37,34.89,8.9008,31.1175,9,25.5A7.5081,7.5081,0,0,1,16.5,18ZM15,51C4.8514,50.95,1.2147,37.4973,9.958,32.3755A9.5341,9.5341,0,0,0,20,34.3281a8.1211,8.1211,0,0,0,.3375,2.5763,13.1831,13.1831,0,0,0,4.2313,6.9745A9.9466,9.9466,0,0,1,15,51Zm23,0a5.9989,5.9989,0,0,1-5.6616-4.02,13.0448,13.0448,0,0,0,9.6626-3.6074,9.7561,9.7561,0,0,0,1.16,4.6737A5.9466,5.9466,0,0,1,38,51Zm21-7.5A7.5083,7.5083,0,0,1,51.5,51c-9.9162-.3635-9.9182-14.6368,0-15A7.5082,7.5082,0,0,1,59,43.5Zm0-14.9106A5.48,5.48,0,0,1,53,34a5.53,5.53,0,0,1,6-6Z"/><path d="M33.6045,25.9746a1,1,0,0,0,.78,1.1792A7.0865,7.0865,0,0,1,38.2539,29.39a1,1,0,0,0,1.498-1.3252C38.9562,26.964,34.2533,23.7274,33.6045,25.9746Z"/><path d="M21.522,43.7173a.9994.9994,0,0,0-1.3692.3535A5.9226,5.9226,0,0,1,15,47a1,1,0,0,0,0,2,8.0073,8.0073,0,0,0,6.8754-3.9136A.9994.9994,0,0,0,21.522,43.7173Z"/></svg>